<svg width="25" height="25" viewBox="0 0 25 25" fill="none" xmlns="http://www.w3.org/2000/svg">
<circle cx="12.5" cy="12.5" r="12.5" fill="#E5E5E5"/>
<g clip-path="url(#clip0_89_3021)">
<path d="M19.4164 16.6066L15.3098 12.5108L19.4056 8.40418C20.1837 7.62608 20.1837 6.36167 19.4056 5.58357C18.6275 4.80548 17.3631 4.80548 16.585 5.58357L12.4784 9.6902L8.37175 5.58357C7.59366 4.80548 6.32925 4.80548 5.55115 5.58357C4.77305 6.36167 4.77305 7.62608 5.55115 8.40418L9.65778 12.5108L5.56196 16.6174C5.19452 16.9957 5 17.5036 5 18.0115C5 18.5195 5.19452 19.0274 5.58357 19.4164C6.36167 20.1945 7.62608 20.1945 8.40417 19.4164L12.5108 15.3098L16.6174 19.4056C17.0065 19.7947 17.5144 19.9892 18.0223 19.9892C18.5303 19.9892 19.0382 19.7947 19.4272 19.4056C20.1945 18.6383 20.1945 17.3847 19.4164 16.6066Z" fill="#669EC9"/>
</g>
<defs>
<clipPath id="clip0_89_3021">
<rect width="15" height="15" fill="white" transform="translate(5 5)"/>
</clipPath>
</defs>
</svg>
