<svg width="51" height="45" viewBox="0 0 51 45" fill="none" xmlns="http://www.w3.org/2000/svg">
<g filter="url(#filter0_d_211_4120)">
<path d="M41.72 37H9.28C6.36 37 4 34.67 4 31.79V5.21C4 2.33 6.36 0 9.28 0H41.73C44.64 0 47 2.33 47 5.21V31.78C47 34.67 44.64 37 41.72 37Z" fill="white"/>
<path d="M32.96 22.88H19.51C18.75 22.88 18.13 22.26 18.13 21.5C18.13 20.74 18.75 20.12 19.51 20.12H32.96C33.72 20.12 34.34 20.74 34.34 21.5C34.35 22.26 33.73 22.88 32.96 22.88Z" fill="#679EC9"/>
<path d="M17.69 12.55H16.01V10.87C16.01 10.52 15.72 10.23 15.37 10.23H14.08C13.72 10.23 13.44 10.52 13.44 10.87V12.55H11.76C11.4 12.55 11.12 12.84 11.12 13.19V14.48C11.12 14.83 11.41 15.12 11.76 15.12H13.44V16.8C13.44 17.15 13.73 17.44 14.08 17.44H15.37C15.73 17.44 16.01 17.15 16.01 16.8V15.12H17.69C18.05 15.12 18.33 14.83 18.33 14.48V13.2C18.34 12.84 18.05 12.55 17.69 12.55Z" fill="#679EC9"/>
<path d="M40.76 12.55H39.08V10.87C39.08 10.52 38.79 10.23 38.44 10.23H37.15C36.79 10.23 36.51 10.52 36.51 10.87V12.55H34.83C34.47 12.55 34.19 12.84 34.19 13.19V14.48C34.19 14.83 34.48 15.12 34.83 15.12H36.51V16.8C36.51 17.15 36.8 17.44 37.15 17.44H38.44C38.8 17.44 39.08 17.15 39.08 16.8V15.12H40.76C41.12 15.12 41.4 14.83 41.4 14.48V13.2C41.41 12.84 41.12 12.55 40.76 12.55Z" fill="#679EC9"/>
</g>
<defs>
<filter id="filter0_d_211_4120" x="0" y="0" width="51" height="45" filterUnits="userSpaceOnUse" color-interpolation-filters="sRGB">
<feFlood flood-opacity="0" result="BackgroundImageFix"/>
<feColorMatrix in="SourceAlpha" type="matrix" values="0 0 0 0 0 0 0 0 0 0 0 0 0 0 0 0 0 0 127 0" result="hardAlpha"/>
<feOffset dy="4"/>
<feGaussianBlur stdDeviation="2"/>
<feComposite in2="hardAlpha" operator="out"/>
<feColorMatrix type="matrix" values="0 0 0 0 0 0 0 0 0 0 0 0 0 0 0 0 0 0 0.25 0"/>
<feBlend mode="normal" in2="BackgroundImageFix" result="effect1_dropShadow_211_4120"/>
<feBlend mode="normal" in="SourceGraphic" in2="effect1_dropShadow_211_4120" result="shape"/>
</filter>
</defs>
</svg>
