<svg width="25" height="26" viewBox="0 0 25 26" fill="none" xmlns="http://www.w3.org/2000/svg">
<g clip-path="url(#clip0_52_876)">
<rect x="0.5" y="0.5" width="24" height="25" rx="3.5" fill="#649EC9"/>
<path d="M2.7963 4.42433C2.83573 4.13809 2.90593 3.86338 3.00113 3.60211H2.36261C1.60967 3.60211 1 4.21109 1 4.96319C1 5.7153 1.60967 6.32428 2.36261 6.32428H2.99921C2.77899 5.72394 2.70687 5.07558 2.7963 4.42433Z" fill="white"/>
<path d="M22.6364 3.60211H10.4508C10.6672 4.19092 10.7479 4.83928 10.6566 5.50302C10.6172 5.78734 10.5479 6.06205 10.4527 6.32524H22.6364C23.3894 6.32524 23.9991 5.71626 23.9991 4.96415C23.9991 4.21205 23.3894 3.60211 22.6364 3.60211Z" fill="white"/>
<path d="M7.26588 1.03748C5.38591 0.778136 3.62807 1.88948 3.0011 3.60212H10.4508C9.96034 2.26985 8.76889 1.244 7.26588 1.03748Z" fill="white"/>
<path d="M3.56554 7.35782C4.20598 8.20117 5.13682 8.74484 6.18595 8.88892C6.36962 8.91389 6.55233 8.92638 6.73407 8.92638C7.59376 8.92638 8.42652 8.64782 9.12274 8.12049C9.73817 7.65462 10.193 7.03316 10.4517 6.32428H2.99915C3.13377 6.69024 3.32321 7.03796 3.56554 7.35782Z" fill="white"/>
<path d="M10.6566 5.50204C10.748 4.83831 10.6672 4.18995 10.4508 3.60114H3.00116C2.90596 3.8624 2.83576 4.13712 2.79633 4.42336C2.7069 5.0746 2.77902 5.72392 2.99923 6.3233H10.4527C10.5479 6.06107 10.6172 5.78636 10.6566 5.50204ZM7.95638 5.13127C7.91118 5.45978 7.74098 5.74986 7.47653 5.95061C7.21208 6.1504 6.8861 6.23685 6.55722 6.19075C6.22835 6.1456 5.93794 5.97559 5.73696 5.71144C5.53694 5.44729 5.45136 5.12167 5.49656 4.79412C5.58214 4.17362 6.11488 3.72312 6.72551 3.72312C6.78128 3.72312 6.83802 3.72697 6.89475 3.73465C7.57365 3.82782 8.04965 4.45505 7.95638 5.13127Z" fill="white"/>
<path d="M15.3714 12.4611C15.4108 12.1768 15.4801 11.902 15.5753 11.6389H2.36261C1.60967 11.6389 1 12.2478 1 12.9999C1 13.752 1.60967 14.361 2.36261 14.361H15.5743C15.3531 13.7607 15.282 13.1123 15.3714 12.4611Z" fill="white"/>
<path d="M24 13C24 12.391 23.5999 11.8761 23.048 11.7023C23.248 12.2738 23.3201 12.8991 23.2316 13.5398C23.1951 13.803 23.1336 14.0566 23.0499 14.2986C23.5999 14.1228 24 13.608 24 13Z" fill="white"/>
<path d="M23.0481 11.7023C22.5721 10.3402 21.3681 9.28364 19.8411 9.07521C18.7919 8.93113 17.7486 9.20392 16.9043 9.84364C16.2889 10.3095 15.834 10.931 15.5763 11.6398H22.6365C22.7798 11.6389 22.9183 11.661 23.0481 11.7023Z" fill="white"/>
<path d="M15.5742 14.3611C15.7088 14.727 15.8983 15.0747 16.1406 15.3946C16.7811 16.238 17.7119 16.7816 18.762 16.9257C18.9447 16.9507 19.1255 16.9632 19.3043 16.9632C20.9949 16.9632 22.5017 15.8787 23.0498 14.2977C22.92 14.339 22.7816 14.3611 22.6373 14.3611H15.5742V14.3611Z" fill="white"/>
<path d="M23.2316 13.5388C23.3191 12.8991 23.248 12.2738 23.0479 11.7013C22.9181 11.66 22.7806 11.6379 22.6373 11.6379H15.5762C15.48 11.9011 15.4108 12.1758 15.3723 12.4602C15.2829 13.1114 15.354 13.7607 15.5752 14.3611H22.6364C22.7806 14.3611 22.9191 14.338 23.0489 14.2977C23.1335 14.0556 23.1951 13.802 23.2316 13.5388ZM20.5314 13.169C20.4381 13.8462 19.8111 14.3217 19.1332 14.2285C18.8043 14.1834 18.5139 14.0133 18.3129 13.7492C18.1129 13.4851 18.0273 13.1594 18.0725 12.8309C18.1177 12.5024 18.2879 12.2123 18.5524 12.0116C18.7707 11.8464 19.0303 11.759 19.2995 11.759C19.3563 11.759 19.414 11.7628 19.4707 11.7705C20.1477 11.8646 20.6237 12.4909 20.5314 13.169Z" fill="white"/>
<path d="M7.71018 20.498C7.7496 20.2118 7.8198 19.937 7.915 19.6758H2.36261C1.60967 19.6758 1 20.2848 1 21.0369C1 21.789 1.60967 22.3979 2.36261 22.3979H7.91596C7.6996 21.8091 7.61882 21.1617 7.71018 20.498Z" fill="white"/>
<path d="M22.6364 19.6758H15.3646C15.581 20.2646 15.6618 20.913 15.5704 21.5757C15.531 21.862 15.4608 22.1367 15.3656 22.3979H22.6364C23.3893 22.3979 23.999 21.789 23.999 21.0369C23.999 20.2848 23.3893 19.6758 22.6364 19.6758Z" fill="white"/>
<path d="M12.1798 17.1111C10.2989 16.8537 8.54201 17.9631 7.91504 19.6758H15.3647C14.8743 18.3435 13.6828 17.3176 12.1798 17.1111Z" fill="white"/>
<path d="M11.1009 24.9626C11.2836 24.9876 11.4644 25.0001 11.6433 25.0001C13.3117 25.0001 14.7993 23.9444 15.3657 22.3989H7.91602C8.40644 23.7302 9.59789 24.7561 11.1009 24.9626Z" fill="white"/>
<path d="M15.5704 21.5757C15.6618 20.912 15.581 20.2636 15.3647 19.6758H7.915C7.8198 19.937 7.7496 20.2118 7.71017 20.498C7.61882 21.1617 7.69959 21.8101 7.91596 22.3989H15.3647C15.4608 22.1367 15.531 21.862 15.5704 21.5757ZM12.8702 21.2059C12.7769 21.8831 12.149 22.3595 11.472 22.2654C10.7941 22.1722 10.3181 21.5459 10.4114 20.8688C10.4969 20.2483 11.0297 19.7978 11.6403 19.7978C11.6961 19.7978 11.7528 19.8016 11.8096 19.8093C12.4875 19.9015 12.9635 20.5278 12.8702 21.2059Z" fill="white"/>
</g>
<rect x="0.5" y="0.5" width="24" height="25" rx="3.5" stroke="#649EC9"/>
<defs>
<clipPath id="clip0_52_876">
</clipPath>
</defs>
</svg>
