<svg width="51" height="45" viewBox="0 0 51 45" fill="none" xmlns="http://www.w3.org/2000/svg">
<g filter="url(#filter0_d_211_4127)">
<path d="M41.7232 37H9.27678C6.36236 37 4 34.6655 4 31.7854V5.21457C4 2.33451 6.36236 0 9.27678 0H41.7232C44.6376 0 47 2.33451 47 5.21457V31.7854C47 34.6655 44.6376 37 41.7232 37Z" fill="white"/>
<path d="M37.4422 17.2225C39.3329 17.2225 40.8656 15.7079 40.8656 13.8395C40.8656 11.9712 39.3329 10.4565 37.4422 10.4565C35.5515 10.4565 34.0189 11.9712 34.0189 13.8395C34.0189 15.7079 35.5515 17.2225 37.4422 17.2225Z" fill="#669EC9"/>
<path d="M33.8688 20.1087C33.8688 24.2748 30.4521 27.6512 26.2363 27.6512C22.0205 27.6512 18.6038 24.2748 18.6038 20.1087H33.8688Z" fill="#669EC9"/>
<rect x="11" y="13" width="8" height="2" rx="1" fill="#649EC9"/>
</g>
<defs>
<filter id="filter0_d_211_4127" x="0" y="0" width="51" height="45" filterUnits="userSpaceOnUse" color-interpolation-filters="sRGB">
<feFlood flood-opacity="0" result="BackgroundImageFix"/>
<feColorMatrix in="SourceAlpha" type="matrix" values="0 0 0 0 0 0 0 0 0 0 0 0 0 0 0 0 0 0 127 0" result="hardAlpha"/>
<feOffset dy="4"/>
<feGaussianBlur stdDeviation="2"/>
<feComposite in2="hardAlpha" operator="out"/>
<feColorMatrix type="matrix" values="0 0 0 0 0 0 0 0 0 0 0 0 0 0 0 0 0 0 0.14 0"/>
<feBlend mode="normal" in2="BackgroundImageFix" result="effect1_dropShadow_211_4127"/>
<feBlend mode="normal" in="SourceGraphic" in2="effect1_dropShadow_211_4127" result="shape"/>
</filter>
</defs>
</svg>
