<svg width="97" height="25" viewBox="0 0 97 25" fill="none" xmlns="http://www.w3.org/2000/svg">
<g clip-path="url(#clip0_9_16)">
<path d="M50.5019 6.13394C50.5019 4.05641 50.5019 2.04271 50.5019 0C52.5829 0 54.617 0 56.6864 0C56.6864 8.30432 56.6864 16.6144 56.6864 24.9884C56.487 24.9884 56.2995 24.9884 56.1119 24.9884C52.2429 24.9884 48.3739 25.0232 44.5108 24.971C43.186 24.9536 41.8377 24.8085 40.548 24.5299C37.7987 23.9322 36.2511 22.1971 35.8642 19.429C35.5125 16.9162 35.5242 14.3976 35.829 11.8849C36.2687 8.2753 38.8128 6.68524 41.6267 6.37767C43.5963 6.16295 45.5894 6.19777 47.5708 6.13974C48.5205 6.11653 49.4643 6.13394 50.5019 6.13394ZM50.4901 11.2813C50.4139 11.2465 50.3787 11.2175 50.3494 11.2175C48.2039 11.2233 46.0643 11.1885 43.9246 11.2639C42.7053 11.3046 42.0604 11.9661 41.9784 13.1906C41.8904 14.5601 41.8435 15.9355 41.9256 17.305C42.0546 19.4116 42.6701 19.9222 44.8039 19.928C46.5625 19.9338 48.3153 19.928 50.0739 19.928C50.2087 19.928 50.3377 19.899 50.4901 19.8816C50.4901 16.9974 50.4901 14.1481 50.4901 11.2813Z" fill="#004153"/>
<path d="M96.9883 6.16295C96.9883 6.40668 96.9883 6.59238 96.9883 6.78389C96.9883 12.6451 96.9824 18.5121 97 24.3733C97 24.8897 96.8417 25.0058 96.3493 25C92.4276 24.9826 88.5117 25.0058 84.5899 24.9826C83.1479 24.9768 81.7175 24.8607 80.3282 24.4139C78.0361 23.6827 76.5823 22.2203 76.1778 19.8294C75.7206 17.1135 75.7382 14.3918 76.1075 11.6701C76.5296 8.55385 78.6516 6.987 81.2427 6.47052C82.2861 6.2616 83.3648 6.15715 84.4317 6.14554C88.4882 6.11072 92.5507 6.12813 96.6131 6.12813C96.7127 6.13393 96.8183 6.15134 96.9883 6.16295ZM90.7217 11.2523C88.4941 11.2523 86.3193 11.1885 84.1444 11.2755C82.8899 11.3278 82.3682 11.8733 82.2568 13.1209C82.1337 14.4847 82.1161 15.8658 82.1572 17.2354C82.2158 19.2955 82.9017 19.9222 84.9768 19.928C86.7355 19.9338 88.4941 19.928 90.2527 19.928C90.4051 19.928 90.5517 19.9048 90.7158 19.8932C90.7217 16.9916 90.7217 14.1423 90.7217 11.2523Z" fill="#004153"/>
<path d="M17.2932 24.9652C15.1769 24.9652 13.1428 24.9652 11.0793 24.9652C11.0793 18.6978 11.0793 12.4536 11.0793 6.13972C11.2435 6.13972 11.4135 6.13972 11.5776 6.13972C15.9214 6.13972 20.2594 6.11651 24.6032 6.15713C25.4884 6.16293 26.397 6.29641 27.2529 6.53434C29.6973 7.2133 31.0925 8.83819 31.2977 11.3568C31.4149 12.8308 31.4442 14.3106 31.456 15.7846C31.4794 18.6745 31.456 21.5645 31.4794 24.4487C31.4853 24.8839 31.3622 25.0058 30.9167 25C29.2108 24.9768 27.5049 24.9942 25.7991 24.9884C25.6291 24.9884 25.4532 24.971 25.2128 24.9594C25.2128 24.7214 25.2128 24.5241 25.2128 24.321C25.207 20.9088 25.2128 17.4965 25.1894 14.09C25.1835 13.5736 25.1073 13.0513 24.9901 12.5464C24.8318 11.879 24.3804 11.4612 23.6946 11.3277C23.4015 11.2697 23.1025 11.2291 22.8094 11.2291C20.9863 11.2175 19.1632 11.2233 17.2932 11.2233C17.2932 15.8078 17.2932 20.3633 17.2932 24.9652Z" fill="#004153"/>
<path d="M72.3206 6.12233C72.3206 7.85747 72.3206 9.48816 72.3206 11.2059C71.711 11.2059 71.1189 11.1885 70.5268 11.2117C69.8996 11.2349 69.2606 11.2523 68.6392 11.3394C67.9651 11.4322 67.5137 11.8675 67.3789 12.5174C67.2499 13.1442 67.1679 13.7883 67.162 14.4266C67.1444 17.6648 67.1561 20.8972 67.1561 24.1353C67.1561 24.3965 67.1561 24.6518 67.1561 24.9536C66.9627 24.9652 66.8103 24.9884 66.6579 24.9884C64.8992 24.9942 63.1406 24.9884 61.3878 25C61.042 25 60.8837 24.9304 60.8896 24.5416C60.9247 20.5084 60.9306 16.4694 60.9658 12.4362C60.9775 11.2987 61.1358 10.1729 61.6634 9.14578C62.4665 7.59053 63.8558 6.78389 65.5089 6.40669C67.7482 5.90181 70.0227 6.22679 72.3206 6.12233Z" fill="#004153"/>
<path d="M0.0293104 6.16296C2.12794 6.16296 4.17967 6.16296 6.26071 6.16296C6.27244 6.30224 6.28416 6.4183 6.28416 6.53437C6.28416 12.4652 6.28416 18.396 6.28416 24.3268C6.28416 24.9942 6.28416 24.9942 5.59243 24.9942C3.90415 24.9942 2.22173 24.9884 0.53345 25C0.170001 25 0 24.942 0 24.5184C0.0117242 18.5005 0.0117242 12.4826 0.0117242 6.46473C0.0117242 6.37768 0.0175863 6.29644 0.0293104 6.16296Z" fill="#004153"/>
</g>
<defs>
<clipPath id="clip0_9_16">
<rect width="97" height="25" fill="white"/>
</clipPath>
</defs>
</svg>
