<svg width="52" height="69" viewBox="0 0 52 69" fill="none" xmlns="http://www.w3.org/2000/svg">
<g clip-path="url(#clip0_3_8)">
<path d="M27.9951 69.0005C31.0452 68.9862 33.4796 68.3951 35.8007 67.3055C38.8154 65.8955 40.9668 63.5597 42.5944 60.7538C44.8165 56.9224 46.8971 53.0127 49.0272 49.1244C49.3669 48.4977 49.2466 48.2983 48.4894 48.0989C45.1421 47.2016 41.7877 46.3257 38.4404 45.4141C37.8884 45.2646 37.5841 45.3856 37.3081 45.9055C36.1404 48.0989 34.9728 50.3066 33.7131 52.443C32.9559 53.7178 32.0571 54.9213 31.1372 56.0892C30.0615 57.4708 26.3957 57.4494 25.3838 55.548C24.6832 54.2305 23.8764 52.9558 23.3173 51.5813C20.338 44.2961 17.4012 36.9894 14.4997 29.6757C13.608 27.4324 12.8508 25.1322 12.0653 22.8533C11.7468 21.9346 11.9238 21.0302 12.2988 20.1471C12.7801 19.0006 13.6505 18.2671 14.7757 17.8469C20.0267 15.917 25.2634 13.9514 30.5498 12.1212C32.8993 11.3094 35.4823 12.8547 36.1333 15.2832C36.565 16.9069 36.8976 18.559 37.2515 20.2112C37.3505 20.6812 37.5345 20.9305 38.0653 20.8165C41.4551 20.0973 44.8519 19.3922 48.2488 18.6943C48.8007 18.5804 49.006 18.3027 48.8644 17.7401C48.3761 15.7318 48.0011 13.6951 47.4208 11.7224C44.9085 3.21225 35.9777 -1.77991 27.4714 0.591546C25.2705 1.20399 23.1121 1.99448 20.9679 2.79208C17.0756 4.23774 13.1197 5.55522 9.34783 7.27149C3.48827 9.94205 0.59388 14.8345 0.0418931 21.1869C-0.177486 23.715 0.452345 26.1576 1.35109 28.4864C4.37287 36.32 7.43003 44.1323 10.5226 51.9374C11.8742 55.3557 13.3391 58.7242 15.3135 61.8434C18.3848 66.6931 22.914 68.8082 27.9951 69.0005Z" fill="#649EC9"/>
<path d="M51.9434 40.6352C51.9009 40.1153 51.8938 39.5883 51.8018 39.0755C50.9739 34.3754 48.2918 31.249 43.7627 29.896C39.4458 28.607 35.0724 27.5031 30.7273 26.3139C30.1116 26.1429 29.9418 26.499 29.8144 26.9904C28.9652 30.2449 28.1018 33.4994 27.2526 36.7611C27.0261 37.6299 27.0615 37.7011 27.9461 37.9361C30.798 38.6981 33.6429 39.4459 36.4948 40.215C41.1443 41.4612 45.7866 42.7217 50.436 43.9751C51.2499 44.1959 51.4056 44.1247 51.5754 43.3128C51.7594 42.4369 51.8655 41.5396 52.0071 40.6565L51.9434 40.6352Z" fill="#B1CEE4"/>
</g>
<defs>
<clipPath id="clip0_3_8">
<rect width="52" height="69" fill="white"/>
</clipPath>
</defs>
</svg>
